<svg width="139" height="20" fill="none" xmlns="http://www.w3.org/2000/svg"><path fill-rule="evenodd" clip-rule="evenodd" d="M10.364 3L2.738 16.912h4.226l7.627-13.91h-4.226z" fill="url(#paint0_linear)"/><path opacity=".5" fill-rule="evenodd" clip-rule="evenodd" d="M15.567 3L7.94 16.91h4.226L19.793 3h-4.226z" fill="url(#paint1_linear)"/><path opacity=".15" fill-rule="evenodd" clip-rule="evenodd" d="M20.769 3l-7.626 13.91h4.226L24.995 3h-4.226z" fill="url(#paint2_linear)"/><path d="M31.597 14.281c-1.072 0-1.94-.321-2.603-.965-.663-.647-.994-1.488-.994-2.523v-.182c0-.722.131-1.358.394-1.91a2.923 2.923 0 011.162-1.278c.508-.304 1.111-.457 1.808-.457.982 0 1.757.309 2.325.926.569.613.853 1.47.853 2.569v.854h-4.327c.078.396.247.706.51.932.263.226.603.34 1.02.34.69 0 1.227-.244 1.615-.73l.994 1.186c-.27.378-.656.68-1.155.906a3.874 3.874 0 01-1.602.332zm-.245-5.62c-.638 0-1.017.426-1.137 1.278h2.196v-.17c.008-.351-.08-.623-.265-.814-.185-.196-.45-.294-.794-.294zm7.128-1.564l.07.828c.483-.64 1.148-.959 1.996-.959.728 0 1.27.22 1.628.659.361.439.548 1.1.562 1.982v4.544h-2.183V9.698c0-.356-.071-.617-.213-.782-.142-.17-.4-.255-.775-.255-.426 0-.743.17-.95.509v4.981H36.44V7.097h2.04zm9.479 5.489c.305 0 .542-.082.71-.248.168-.169.25-.404.245-.704h2.041c0 .774-.275 1.409-.826 1.904-.547.496-1.253.743-2.119.743-1.016 0-1.816-.321-2.402-.965-.585-.643-.878-1.534-.878-2.673v-.09c0-.714.129-1.342.387-1.885.263-.548.64-.967 1.13-1.258.491-.296 1.072-.444 1.744-.444.908 0 1.63.255 2.163.763.534.509.801 1.198.801 2.067h-2.04c0-.365-.089-.646-.265-.841-.177-.196-.414-.294-.71-.294-.565 0-.894.363-.989 1.09-.03.23-.045.547-.045.951 0 .709.084 1.2.252 1.473.168.274.435.411.8.411zm9.201-3.501l-.717-.052c-.684 0-1.123.217-1.317.652v4.466H52.95V7.097h2.04l.071.906c.366-.691.876-1.037 1.53-1.037.233 0 .435.026.608.079l-.04 2.04zm4.752 1.989l1.162-3.977h2.331l-2.848 8.234-.122.3C62.03 16.544 61.315 17 60.29 17a3.37 3.37 0 01-.898-.13v-1.572h.284c.306 0 .538-.045.698-.136.163-.087.284-.246.361-.476l.175-.47-2.428-7.12h2.325l1.104 3.978zm11.61-.398c0 1.095-.246 1.971-.737 2.627-.486.652-1.145.978-1.976.978-.641 0-1.168-.237-1.582-.71v3.292h-2.176V7.097h2.034l.065.652c.417-.522.966-.783 1.646-.783.861 0 1.531.322 2.009.965.478.64.717 1.52.717 2.64v.105zm-2.177-.137c0-1.252-.361-1.878-1.085-1.878-.516 0-.86.187-1.033.561V12c.19.392.538.587 1.046.587.694 0 1.05-.604 1.072-1.812v-.235zm6.735-5.196v1.754h1.15v1.525h-1.15v3.228c0 .265.047.45.142.554.095.104.282.156.562.156.215 0 .396-.013.542-.039v1.571c-.392.126-.8.19-1.227.19-.749 0-1.302-.179-1.66-.535-.357-.357-.535-.898-.535-1.624v-3.5h-.892V7.096h.891V5.343h2.177zm3.576 8.808V8.622h-1.014V7.097h1.014v-.235c.013-.939.319-1.658.917-2.158.569-.47 1.363-.704 2.383-.704.642 0 1.4.126 2.273.378l-.297 1.734-.361-.097a5.702 5.702 0 00-1.486-.19c-.83 0-1.246.383-1.246 1.148v.124h1.369v1.525h-1.369v5.529h-2.183zm6.574 0h-2.189V7.097h2.19v7.054zm4.384-7.054l.071.828c.482-.64 1.147-.959 1.995-.959.728 0 1.27.22 1.628.659.361.439.549 1.1.562 1.982v4.544h-2.183V9.698c0-.356-.071-.617-.213-.782-.142-.17-.4-.255-.775-.255-.426 0-.743.17-.95.509v4.981h-2.176V7.097h2.041zm10.46 7.054a2.511 2.511 0 01-.206-.632c-.401.508-.96.762-1.679.762-.659 0-1.218-.2-1.68-.6a1.937 1.937 0 01-.69-1.518c0-.765.28-1.344.84-1.735.559-.39 1.373-.586 2.44-.586h.672V9.47c0-.648-.278-.972-.833-.972-.517 0-.775.257-.775.77h-2.176c0-.683.286-1.237.859-1.663.576-.426 1.311-.639 2.202-.639s1.595.22 2.111.659c.517.439.782 1.04.795 1.806v3.123c.008.647.107 1.143.297 1.486v.111h-2.177zm-1.362-1.434c.271 0 .495-.059.671-.176a1.1 1.1 0 00.388-.398v-1.128h-.633c-.758 0-1.136.343-1.136 1.03 0 .2.066.363.2.49a.726.726 0 00.51.182zm7.509-5.62l.071.828c.482-.64 1.148-.959 1.996-.959.727 0 1.27.22 1.627.659.362.439.549 1.1.562 1.982v4.544h-2.183V9.698c0-.356-.071-.617-.213-.782-.142-.17-.4-.255-.775-.255-.426 0-.743.17-.949.509v4.981h-2.176V7.097h2.04zm9.479 5.489c.306 0 .542-.082.71-.248.168-.169.25-.404.246-.704h2.04c0 .774-.275 1.409-.826 1.904-.547.496-1.253.743-2.118.743-1.016 0-1.817-.321-2.403-.965-.585-.643-.878-1.534-.878-2.673v-.09c0-.714.129-1.342.388-1.885a2.853 2.853 0 011.13-1.258c.491-.296 1.072-.444 1.743-.444.909 0 1.63.255 2.164.763.534.509.8 1.198.8 2.067h-2.04c0-.365-.088-.646-.265-.841-.176-.196-.413-.294-.71-.294-.564 0-.894.363-.988 1.09-.03.23-.046.547-.046.951 0 .709.084 1.2.252 1.473.168.274.435.411.801.411zm8.355 1.695c-1.072 0-1.939-.321-2.602-.965-.663-.647-.995-1.488-.995-2.523v-.182c0-.722.132-1.358.394-1.91a2.925 2.925 0 011.163-1.278c.508-.304 1.11-.457 1.808-.457.981 0 1.756.309 2.325.926.568.613.852 1.47.852 2.569v.854h-4.327c.078.396.248.706.51.932.263.226.603.34 1.021.34.689 0 1.227-.244 1.614-.73l.995 1.186c-.272.378-.657.68-1.156.906a3.874 3.874 0 01-1.602.332zm-.245-5.62c-.637 0-1.016.426-1.137 1.278h2.196v-.17c.009-.351-.08-.623-.265-.814-.185-.196-.45-.294-.794-.294z" fill="#D8C4FF"/><defs><linearGradient id="paint0_linear" x1="11.296" y1="3.001" x2="3.08" y2="15.799" gradientUnits="userSpaceOnUse"><stop stop-color="#D8C4FF"/><stop offset="1" stop-color="#A34BDA"/></linearGradient><linearGradient id="paint1_linear" x1="16.497" y1="3" x2="8.282" y2="15.799" gradientUnits="userSpaceOnUse"><stop stop-color="#440A67"/><stop offset="1" stop-color="#A34BDA"/></linearGradient><linearGradient id="paint2_linear" x1="21.699" y1="3" x2="13.484" y2="15.798" gradientUnits="userSpaceOnUse"><stop stop-color="#E3A04E"/><stop offset="1" stop-color="#D8C4FF"/></linearGradient></defs></svg>